# xmcd
#
# Track frame offsets:
#	150
#	19635
#	30548
#	47508
#	69879
#	90739
#	106902
#	130277
#	146904
#	169042
#	183933
#	209482
#	228658
#	253128
#	274114
#	295095
#	319613
#
# Disc length: 4769 seconds
#
# Revision: 1
# Processed by: cddbd v1.5.2PL0 Copyright (c) Steve Scherf et al.
# Submitted via: EasyCDDAExtractor 11.9.9.666
#
DISCID=f1129f11
DTITLE=Various Artist - Fear Candy 39
DYEAR=1900
DGENRE=Metal
TTITLE0=Aborted - The Chondrin Enigma
TTITLE1=Abscess - The Eternal Pyre
TTITLE2=Unsane - Line On The Wall
TTITLE3=Naglfar - The Mirrors Of My Soul
TTITLE4=Chimaira - Resurrection
TTITLE5=The Nox - Choronzonic Chaos Gods
TTITLE6=One Man Army and The Undead Quartet - See Them Burn
TTITLE7=Daath - Subterfuge
TTITLE8=Hacride - Fate
TTITLE9=The Insects - Psyopus
TTITLE10=Hella - The Ungrateful Dead
TTITLE11=Zuul FX - Here Is Pure Hatred
TTITLE12=Mendeed - Burning Fear
TTITLE13=Mors Principium Est - Sinners Defeat
TTITLE14=With Passion - Pale Horses Ride
TTITLE15=Mael Mordha - Gealtach
TTITLE16=The Prophesy - Rivers
EXTD=
EXTT0=
EXTT1=
EXTT2=
EXTT3=
EXTT4=
EXTT5=
EXTT6=
EXTT7=
EXTT8=
EXTT9=
EXTT10=
EXTT11=
EXTT12=
EXTT13=
EXTT14=
EXTT15=
EXTT16=
PLAYORDER=
